<svg xmlns="http://www.w3.org/2000/svg" xmlns:xlink="http://www.w3.org/1999/xlink" width="333.581" height="427.266" viewBox="0 0 333.581 427.266">
  <defs>
    <filter id="path828" x="177.334" y="0" width="156.247" height="389.092" filterUnits="userSpaceOnUse">
      <feOffset dy="3" input="SourceAlpha"/>
      <feGaussianBlur stdDeviation="3" result="blur"/>
      <feFlood flood-opacity="0.102"/>
      <feComposite operator="in" in2="blur"/>
      <feComposite in="SourceGraphic"/>
    </filter>
    <filter id="path883" x="0" y="104.844" width="134.044" height="322.422" filterUnits="userSpaceOnUse">
      <feOffset dy="3" input="SourceAlpha"/>
      <feGaussianBlur stdDeviation="3" result="blur-2"/>
      <feFlood flood-opacity="0.102"/>
      <feComposite operator="in" in2="blur-2"/>
      <feComposite in="SourceGraphic"/>
    </filter>
    <filter id="path888" x="70.6" y="106.077" width="169.961" height="281.424" filterUnits="userSpaceOnUse">
      <feOffset dy="3" input="SourceAlpha"/>
      <feGaussianBlur stdDeviation="3" result="blur-3"/>
      <feFlood flood-opacity="0.2"/>
      <feComposite operator="in" in2="blur-3"/>
      <feComposite in="SourceGraphic"/>
    </filter>
  </defs>
  <g id="novus_Logo_shadow" data-name="novus Logo shadow" transform="matrix(1, 0.017, -0.017, 1, -966.746, -807.232)" style="isolation: isolate">
    <g transform="matrix(1, -0.02, 0.02, 1, 980.69, 790.24)" filter="url(#path828)">
      <path id="path828-2" data-name="path828" d="M226.2-58.642,187.432-11.506,148.67,35.63h22.568L140.957,156.878,124.8,221.555l25.571,88.65h15.107L234.058,35.63h22.568L241.411-11.506Z" transform="matrix(1, 0.02, -0.02, 1, 66.97, 62.46)" fill="#004686"/>
    </g>
    <g transform="matrix(1, -0.02, 0.02, 1, 980.69, 790.24)" filter="url(#path883)">
      <path id="path883-2" data-name="path883" d="M211.469,194.877,186.555,101.5h-15.96L100.688,404.029h62.453l31.512-136.373Z" transform="matrix(1, 0.02, -0.02, 1, -84.62, 7.61)" fill="#004686"/>
    </g>
    <g transform="matrix(1, -0.02, 0.02, 1, 980.69, 790.24)" filter="url(#path888)">
      <path id="path888-2" data-name="path888" d="M118.2-51.973l70.1,260.891h77.333L194.322-51.973H118.2Z" transform="matrix(1, 0.02, -0.02, 1, -34.94, 161.98)" fill="#0086ff"/>
    </g>
  </g>
</svg>
